# xmcd CD database file
#
# Track frame offsets:
#	150
#	13683
#	27924
#	56758
#	79281
#	118298
#	150715
#	162407
#	184999
#	209418
#	214231
#	225294
#	239599
#
# Disc length: 3453 seconds
#
# Revision: 0
# Processed by: cddbd v1.5PL3 Copyright (c) Steve Scherf et al.
# Submitted via: CDex 1.51
#
DISCID=b70d7b0d
DTITLE=Black Sabbath - Last Gig With Ray [CD1]
DYEAR=1986
DGENRE=Hard Rock
TTITLE0=Supertzar
TTITLE1=The Mob Rules
TTITLE2=Children Of The Sea
TTITLE3=Danger Zone
TTITLE4=War Pigs
TTITLE5=Heart Like A Wheel
TTITLE6=Symptom Of The Universe
TTITLE7=Sweet Leaf〜Zero The Hero〜Sphinx
TTITLE8=Seventh Star
TTITLE9=Member Introduction
TTITLE10=Turn To Stone
TTITLE11=Eric Singer Drum Solo
TTITLE12=Die Young
EXTD=YEAR: 1986
EXTT0=
EXTT1=
EXTT2=
EXTT3=
EXTT4=
EXTT5=
EXTT6=
EXTT7=
EXTT8=
EXTT9=
EXTT10=
EXTT11=
EXTT12=
PLAYORDER=
